<svg width="256" height="58" fill="none" xmlns="http://www.w3.org/2000/svg"><g opacity=".9" clip-path="url(#clip0_375_25778)" filter="url(#filter0_d_375_25778)" fill="#F6F8FA"><path d="M86.478 16.011c1.964 0 3.367 1.405 5.05 2.247 2.244 1.124 4.77 1.686 7.294 2.248 3.647.842 5.892 3.09 7.294 5.898 0 0 .281 0 .281-.28 1.122-.562 1.964-1.124 3.086-1.686 2.244-.843 4.769-.562 7.013 0 3.928.843 8.416 5.056 12.625 3.652h.28c-3.647 3.09-8.697.28-12.905 0h-3.927c-.842 0-1.403.561-2.245.842-1.402.562-2.805 1.405-4.208 2.248-1.122.28-2.525-.562-2.805-1.686 0-.28-.281-.843-.281-1.123-.561-1.686-1.122-3.371-3.086-4.214-.28-.28-.841-.28-1.402-.562-.561-.28-1.403-.842-1.964-1.123-3.647-1.405-8.136-2.81-10.1-6.46 0 0 0-.282 0 0zm47.693 28.652c.842-.28 1.964.28 2.806.562 1.402.28 2.525.28 3.927.28 1.964 0 3.367.843 4.489 1.967.28-.562.842-.843 1.403-1.124 1.122-.561 2.244-.842 3.366-.842 1.964-.281 4.769 1.404 6.733.28-1.403 1.967-4.208 1.405-6.452 1.686-.281 0-.561.28-1.123.28-.28 0-.561.282-.841.282-.281.28-.561.562-1.122.843l-1.684 1.685c-.561.28-1.402 0-1.683-.562 0-.28-.28-.28-.28-.562-.561-.842-.842-1.404-1.964-1.685h-.842c-.28 0-.841-.281-1.122-.281-1.964-.843-4.208-1.124-5.611-2.809-.28 0-.28 0 0 0zM65.438 30.618c.841 0 1.683.843 2.524 1.124 1.123.562 2.245 1.123 3.647 1.404 1.964.562 3.086 1.686 3.647 3.371h.28c.562-.28 1.123-.562 1.684-.843 1.122-.28 2.525-.28 3.647 0 1.964.562 4.208 2.81 6.453 2.248-1.964 1.404-4.489 0-6.453-.281h-2.244c-.28 0-.842.28-1.122.28-.842.281-1.403.562-2.245 1.124-.56 0-1.122-.28-1.402-1.123v-.562c-.28-.843-.561-1.686-1.403-2.248-.28 0-.561-.28-.561-.28-.28-.281-.561-.281-1.122-.562-2.245-.843-4.489-1.686-5.33-3.652zM19.43 0c1.402 0 2.805.843 4.207 1.124 1.964.561 3.928.842 5.892 1.123 3.085.281 5.05 1.686 6.452 3.933l.28-.281c.842-.562 1.403-1.124 2.245-1.686 1.683-.842 3.647-.842 5.61-.842 3.367.28 7.295 3.09 10.38 1.685h.281c-2.525 2.81-6.733 1.124-10.1 1.405-.56 0-1.121 0-1.682.28-.562 0-1.123.281-1.684.281l-1.683.843c-1.122.562-1.964 1.405-3.086 2.247-.842.281-1.964-.28-2.244-1.123 0-.281-.28-.562-.28-.843-.562-1.404-1.123-2.528-2.806-3.09-.28 0-.842-.28-1.122-.28-.561 0-1.122-.282-1.684-.282C25.04 3.371 21.393 2.81 19.43 0c-.28 0-.28 0 0 0zm40.959 17.977c.841-.28 1.402 0 2.244 0 1.122 0 1.964 0 3.086-.28 1.683-.281 2.805.28 3.647 1.123.28-.28.561-.843.842-1.123 1.122-.562 1.963-.843 2.805-1.124 1.683-.28 3.927.562 5.33-.562-.841 1.686-3.366 1.405-4.769 1.966-.28 0-.561.281-.842.281-.28 0-.56.281-.841.281-.28.281-.561.281-.842.562-.56.562-.841.843-1.122 1.405-.28.28-1.122 0-1.403-.281l-.28-.281c-.561-.562-.842-1.124-1.683-1.124h-1.403c-1.683 0-3.367.281-4.77-.843zM4 14.045c.842 0 1.403.562 2.244.843 1.122.28 1.964.561 3.086.561 1.403.281 2.525 1.124 3.086 2.248.561-.281.842-.562 1.403-.843.841-.281 1.964-.281 2.805-.281 1.684.28 3.647 1.685 5.33 1.124-1.122 1.404-3.366.28-5.05.28h-1.682c-.281 0-.561.281-.842.562-.561.562-1.122.843-1.683 1.124-.561.28-1.122 0-1.122-.562 0-.28 0-.28-.281-.562-.28-.562-.561-1.123-1.403-1.404 0-.281-.28-.281-.56-.281-.281 0-.562-.281-.842-.281-1.684-.562-3.367-1.124-4.489-2.528zm195.535-.842c1.403 0 2.525.842 3.927 1.404 1.684.843 3.367.843 5.331 1.124 2.805.28 4.488 1.685 5.61 3.932l.281-.28c.561-.562 1.403-1.124 1.964-1.405 1.683-.562 3.366-.562 5.049-.562 2.806.281 6.453 3.09 9.258 1.966h.281c-2.245 2.528-6.172.843-9.258.843h-1.403c-.561 0-.841 0-1.402.281-.561 0-1.123.562-1.684.843-.841.561-1.963 1.123-2.805 1.685-.842.281-1.683-.28-1.964-1.123 0-.281-.28-.562-.28-.843-.561-1.124-1.122-2.247-2.525-2.81-.281 0-.561-.28-1.122-.28-.561-.281-1.123-.562-1.403-.562-3.086-.843-6.452-1.685-7.855-4.213-.281 0 0 0 0 0zM235.164 30.9c.561-.282 1.403 0 1.964.28h2.805c1.403-.28 2.525.281 3.367 1.124l.841-.843c.561-.562 1.684-.843 2.525-.843 1.403-.28 3.647.562 4.769-.28-.841 1.404-3.086 1.123-4.488 1.685-.281 0-.561.28-.561.28-.281 0-.561.282-.561.282-.281 0-.562.28-.562.561-.561.281-.841.843-1.122 1.124-.28.28-.841 0-1.122-.28l-.28-.282c-.281-.562-.842-1.123-1.684-1.123h-1.402c-1.684-.562-3.367-.562-4.489-1.686zM185.229 25c.561 0 1.402.562 1.963.843.842.28 1.684.561 2.806.842 1.402.281 2.244 1.124 2.805 1.967.281-.281.561-.562 1.122-.562a3.888 3.888 0 012.525 0c1.403.28 3.086 1.685 4.769 1.123-1.402 1.124-3.086.281-4.769.281h-1.683c-.281 0-.561.281-.842.281-.561.281-1.122.562-1.402.843-.281 0-.842-.28-1.123-.562v-.28c-.28-.563-.561-1.124-1.122-1.405-.28 0-.28 0-.561-.281-.28 0-.561-.281-.841-.281-1.123-1.124-2.806-1.405-3.647-2.809zM150.441 5.618c1.123 0 2.245.281 3.086.562 1.403.28 2.806.28 4.489.28 2.244 0 3.647.844 5.05 2.529v-.281c.561-.28.841-.562 1.402-1.124 1.123-.561 2.525-.842 3.928-.842 2.244 0 5.33 1.685 7.575.562h.28c-1.683 2.247-4.769 1.123-7.294 1.685-.281 0-.842.28-1.122.28-.281 0-.842.282-1.122.282-.561.28-.842.562-1.122.842-.842.562-1.403 1.124-1.964 1.686-.561.28-1.403 0-1.683-.562 0-.28-.281-.28-.281-.562-.561-.842-1.122-1.685-2.244-1.966h-.842c-.561-.562-1.122-.562-1.403-.562-2.525-.562-5.049-.843-6.733-2.809zm30.299 10.393c.561-.28 1.122 0 1.683 0 .842 0 1.403-.28 2.245-.28 1.122-.282 1.964 0 2.805.561.281-.28.281-.562.561-.843.561-.561 1.122-.842 1.683-.842 1.123-.281 2.806.28 3.928-.562-.561 1.404-2.244 1.123-3.366 1.685-.281 0-.281.281-.562.281-.28 0-.28.281-.561.281 0-.28 0 0-.28.281-.281.28-.561.843-.842 1.124-.28.28-.841 0-.841 0l-.281-.281c-.28-.281-.842-.843-1.403-.843h-.841c-1.403 0-2.806.28-3.928-.562 0 .281 0 0 0 0zm-40.398.562c.561 0 1.122.281 1.683.281.842.281 1.403.281 2.244.281 1.123 0 1.964.562 2.525 1.404.281 0 .281-.28.561-.561.561-.281 1.403-.281 1.964-.281 1.122 0 2.805 1.123 3.928.562-.842 1.123-2.525.561-3.647.561h-1.123c-.28 0-.561.281-.561.281-.28.562-.841.843-1.122 1.124-.28 0-.841 0-.841-.281 0 0 0-.28-.281-.28-.28-.563-.561-.844-1.122-1.125h-.281c-.28 0-.561-.28-.561-.28-1.122-.281-2.525-.562-3.366-1.686z"/></g><defs><clipPath id="clip0_375_25778"><path fill="#fff" transform="translate(4)" d="M0 0h247.436v50H0z"/></clipPath><filter id="filter0_d_375_25778" x="0" y="0" width="255.436" height="58" filterUnits="userSpaceOnUse" color-interpolation-filters="sRGB"><feFlood flood-opacity="0" result="BackgroundImageFix"/><feColorMatrix in="SourceAlpha" values="0 0 0 0 0 0 0 0 0 0 0 0 0 0 0 0 0 0 127 0" result="hardAlpha"/><feOffset dy="4"/><feGaussianBlur stdDeviation="2"/><feComposite in2="hardAlpha" operator="out"/><feColorMatrix values="0 0 0 0 0 0 0 0 0 0 0 0 0 0 0 0 0 0 0.25 0"/><feBlend in2="BackgroundImageFix" result="effect1_dropShadow_375_25778"/><feBlend in="SourceGraphic" in2="effect1_dropShadow_375_25778" result="shape"/></filter></defs></svg>