<svg width="1920" height="51" viewBox="0 0 1920 51" fill="none" xmlns="http://www.w3.org/2000/svg">
<g clip-path="url(#clip0_375_25455)">
<path d="M960.009 52.2401C913.333 52.2401 876.868 47.3568 841.861 42.7007C806.854 38.0446 773.67 33.6157 731.006 33.6157C687.977 33.6157 655.158 38.0446 620.151 42.7007C585.144 47.3568 548.679 52.2401 502.003 52.2401C455.327 52.2401 418.862 47.3568 383.855 42.7007C348.848 38.0446 315.664 33.6157 273 33.6157C229.971 33.6157 197.152 38.0446 162.145 42.7007C127.138 47.3568 90.6728 52.2401 43.997 52.2401C-2.67871 52.2401 -39.1441 47.3568 -74.1509 42.7007C-109.158 38.0446 -142.341 33.6157 -185.006 33.6157C-228.035 33.6157 -260.854 38.0446 -295.861 42.7007C-330.868 47.3568 -367.333 52.2401 -414.009 52.2401C-434.429 52.2401 -454.85 51.3316 -476 49.401L-470.895 43.9499C-451.204 45.767 -432.606 46.5619 -414.009 46.5619C-370.98 46.5619 -338.161 42.1329 -303.154 37.4768C-268.147 32.8207 -231.682 27.9375 -185.006 27.9375C-138.33 27.9375 -101.865 32.8207 -66.8578 37.4768C-31.851 42.1329 1.33249 46.5619 43.997 46.5619C87.0262 46.5619 119.845 42.1329 154.852 37.4768C189.859 32.8207 226.324 27.9375 273 27.9375C319.676 27.9375 356.141 32.8207 391.148 37.4768C426.155 42.1329 459.338 46.5619 502.003 46.5619C545.032 46.5619 577.851 42.1329 612.858 37.4768C647.865 32.8207 684.33 27.9375 731.006 27.9375C777.682 27.9375 814.147 32.8207 849.154 37.4768C884.161 42.1329 917.344 46.5619 960.009 46.5619C978.606 46.5619 997.204 45.6534 1016.89 43.9499L1022 49.401C1000.85 51.3316 980.794 52.2401 960.009 52.2401Z" fill="white"/>
<path d="M960.009 24.3027C913.333 24.3027 876.868 19.4194 841.861 14.7633C806.854 10.1072 773.67 5.67819 731.006 5.67819C687.977 5.67819 655.158 10.1072 620.151 14.7633C585.144 19.4194 548.679 24.3027 502.003 24.3027C455.327 24.3027 418.862 19.4194 383.855 14.7633C348.848 10.1072 315.664 5.67819 273 5.67819C229.971 5.67819 197.152 10.1072 162.145 14.7633C127.138 19.4194 90.6728 24.3027 43.997 24.3027C-2.67871 24.3027 -39.1441 19.4194 -74.1509 14.7633C-109.158 10.1072 -142.341 5.67819 -185.006 5.67819C-228.035 5.67819 -260.854 10.1072 -295.861 14.7633C-330.868 19.4194 -367.333 24.3027 -414.009 24.3027C-434.429 24.3027 -454.85 23.3942 -476 21.4636L-470.895 16.0125C-451.204 17.8295 -432.606 18.6245 -414.009 18.6245C-370.98 18.6245 -338.161 14.1955 -303.154 9.53937C-268.147 4.88325 -231.682 0 -185.006 0C-138.33 0 -101.865 4.88325 -66.8578 9.53937C-31.851 14.1955 1.33249 18.6245 43.997 18.6245C87.0262 18.6245 119.845 14.1955 154.852 9.53937C189.859 4.88325 226.324 0 273 0C319.676 0 356.141 4.88325 391.148 9.53937C426.155 14.1955 459.338 18.6245 502.003 18.6245C545.032 18.6245 577.851 14.1955 612.858 9.53937C647.865 4.88325 684.33 0 731.006 0C777.682 0 814.147 4.88325 849.154 9.53937C884.161 14.1955 917.344 18.6245 960.009 18.6245C978.606 18.6245 997.204 17.716 1016.89 16.0125L1022 21.4636C1000.85 23.3942 980.794 24.3027 960.009 24.3027Z" fill="white"/>
<path d="M-233.5 32.2188L-390 52L-316 56.2188L-91.5 67.2188L28.5 51L-65 41.7188L-158.5 30.2188L-233.5 32.2188Z" fill="white"/>
<path d="M215.5 32.2188L63.5 51L133 56.2188L357.5 67.2188L488.5 51.5L384 41.7188L290.5 30.2188L215.5 32.2188Z" fill="white"/>
<path d="M672.5 32.2188L521 52L590 56.2188L814.5 67.2188L949.5 51.5L841 41.7188L747.5 30.2188L672.5 32.2188Z" fill="white"/>
<path d="M2334.01 52.2401C2287.33 52.2401 2250.87 47.3568 2215.86 42.7007C2180.85 38.0446 2147.67 33.6157 2105.01 33.6157C2061.98 33.6157 2029.16 38.0446 1994.15 42.7007C1959.14 47.3568 1922.68 52.2401 1876 52.2401C1829.33 52.2401 1792.86 47.3568 1757.85 42.7007C1722.85 38.0446 1689.66 33.6157 1647 33.6157C1603.97 33.6157 1571.15 38.0446 1536.15 42.7007C1501.14 47.3568 1464.67 52.2401 1418 52.2401C1371.32 52.2401 1334.86 47.3568 1299.85 42.7007C1264.84 38.0446 1231.66 33.6157 1188.99 33.6157C1145.96 33.6157 1113.15 38.0446 1078.14 42.7007C1043.13 47.3568 1006.67 52.2401 959.991 52.2401C939.571 52.2401 919.15 51.3316 898 49.401L903.105 43.9499C922.796 45.767 941.394 46.5619 959.991 46.5619C1003.02 46.5619 1035.84 42.1329 1070.85 37.4768C1105.85 32.8207 1142.32 27.9375 1188.99 27.9375C1235.67 27.9375 1272.14 32.8207 1307.14 37.4768C1342.15 42.1329 1375.33 46.5619 1418 46.5619C1461.03 46.5619 1493.85 42.1329 1528.85 37.4768C1563.86 32.8207 1600.32 27.9375 1647 27.9375C1693.68 27.9375 1730.14 32.8207 1765.15 37.4768C1800.15 42.1329 1833.34 46.5619 1876 46.5619C1919.03 46.5619 1951.85 42.1329 1986.86 37.4768C2021.86 32.8207 2058.33 27.9375 2105.01 27.9375C2151.68 27.9375 2188.15 32.8207 2223.15 37.4768C2258.16 42.1329 2291.34 46.5619 2334.01 46.5619C2352.61 46.5619 2371.2 45.6534 2390.89 43.9499L2396 49.401C2374.85 51.3316 2354.79 52.2401 2334.01 52.2401Z" fill="white"/>
<path d="M2334.01 24.3027C2287.33 24.3027 2250.87 19.4194 2215.86 14.7633C2180.85 10.1072 2147.67 5.67819 2105.01 5.67819C2061.98 5.67819 2029.16 10.1072 1994.15 14.7633C1959.14 19.4194 1922.68 24.3027 1876 24.3027C1829.33 24.3027 1792.86 19.4194 1757.85 14.7633C1722.85 10.1072 1689.66 5.67819 1647 5.67819C1603.97 5.67819 1571.15 10.1072 1536.15 14.7633C1501.14 19.4194 1464.67 24.3027 1418 24.3027C1371.32 24.3027 1334.86 19.4194 1299.85 14.7633C1264.84 10.1072 1231.66 5.67819 1188.99 5.67819C1145.96 5.67819 1113.15 10.1072 1078.14 14.7633C1043.13 19.4194 1006.67 24.3027 959.991 24.3027C939.571 24.3027 919.15 23.3942 898 21.4636L903.105 16.0125C922.796 17.8295 941.394 18.6245 959.991 18.6245C1003.02 18.6245 1035.84 14.1955 1070.85 9.53937C1105.85 4.88325 1142.32 0 1188.99 0C1235.67 0 1272.14 4.88325 1307.14 9.53937C1342.15 14.1955 1375.33 18.6245 1418 18.6245C1461.03 18.6245 1493.85 14.1955 1528.85 9.53937C1563.86 4.88325 1600.32 0 1647 0C1693.68 0 1730.14 4.88325 1765.15 9.53937C1800.15 14.1955 1833.34 18.6245 1876 18.6245C1919.03 18.6245 1951.85 14.1955 1986.86 9.53937C2021.86 4.88325 2058.33 0 2105.01 0C2151.68 0 2188.15 4.88325 2223.15 9.53937C2258.16 14.1955 2291.34 18.6245 2334.01 18.6245C2352.61 18.6245 2371.2 17.716 2390.89 16.0125L2396 21.4636C2374.85 23.3942 2354.79 24.3027 2334.01 24.3027Z" fill="white"/>
<path d="M1140.5 32.2188L984 52L1058 56.2188L1282.5 67.2188L1402.5 51L1309 41.7188L1215.5 30.2188L1140.5 32.2188Z" fill="white"/>
<path d="M1589.5 32.2188L1437.5 51L1507 56.2188L1731.5 67.2188L1862.5 51.5L1758 41.7188L1664.5 30.2188L1589.5 32.2188Z" fill="white"/>
<path d="M2046.5 32.2188L1895 52L1964 56.2188L2188.5 67.2188L2323.5 51.5L2215 41.7188L2121.5 30.2188L2046.5 32.2188Z" fill="white"/>
<rect y="49" width="2271" height="27" fill="white"/>
</g>
<defs>
<clipPath id="clip0_375_25455">
<rect width="1920" height="51" fill="white"/>
</clipPath>
</defs>
</svg>
